<svg width="150" height="151" viewBox="0 0 150 151" fill="none" xmlns="http://www.w3.org/2000/svg">
    <path fill-rule="evenodd" clip-rule="evenodd"
        d="M82.5 120.5C86.4782 120.5 90.2936 122.08 93.1066 124.893C95.9196 127.706 97.5 131.522 97.5 135.5C97.5 139.478 95.9196 143.294 93.1066 146.107C90.2936 148.92 86.4782 150.5 82.5 150.5C78.5218 150.5 74.7064 148.92 71.8934 146.107C69.0804 143.294 67.5 139.478 67.5 135.5C67.5 131.522 69.0804 127.706 71.8934 124.893C74.7064 122.08 78.5218 120.5 82.5 120.5ZM35.5575 98C40.5303 98 45.2994 99.9754 48.8158 103.492C52.3321 107.008 54.3075 111.777 54.3075 116.75C54.3075 121.723 52.3321 126.492 48.8158 130.008C45.2994 133.525 40.5303 135.5 35.5575 135.5C30.5847 135.5 25.8156 133.525 22.2992 130.008C18.7829 126.492 16.8075 121.723 16.8075 116.75C16.8075 111.777 18.7829 107.008 22.2992 103.492C25.8156 99.9754 30.5847 98 35.5575 98ZM122.393 101.75C126.371 101.75 130.186 103.33 132.999 106.143C135.812 108.956 137.393 112.772 137.393 116.75C137.393 120.728 135.812 124.544 132.999 127.357C130.186 130.17 126.371 131.75 122.393 131.75C118.414 131.75 114.599 130.17 111.786 127.357C108.973 124.544 107.393 120.728 107.393 116.75C107.393 112.772 108.973 108.956 111.786 106.143C114.599 103.33 118.414 101.75 122.393 101.75ZM138.75 70.3925C141.734 70.3925 144.595 71.5778 146.705 73.6875C148.815 75.7973 150 78.6588 150 81.6425C150 84.6262 148.815 87.4877 146.705 89.5975C144.595 91.7072 141.734 92.8925 138.75 92.8925C135.766 92.8925 132.905 91.7072 130.795 89.5975C128.685 87.4877 127.5 84.6262 127.5 81.6425C127.5 78.6588 128.685 75.7973 130.795 73.6875C132.905 71.5778 135.766 70.3925 138.75 70.3925ZM18.75 45.5C23.7228 45.5 28.4919 47.4754 32.0083 50.9917C35.5246 54.5081 37.5 59.2772 37.5 64.25C37.5 69.2228 35.5246 73.9919 32.0083 77.5083C28.4919 81.0246 23.7228 83 18.75 83C13.7772 83 9.00805 81.0246 5.49175 77.5083C1.97544 73.9919 0 69.2228 0 64.25C0 59.2772 1.97544 54.5081 5.49175 50.9917C9.00805 47.4754 13.7772 45.5 18.75 45.5ZM133.395 39.5525C135.384 39.5525 137.292 40.3427 138.698 41.7492C140.105 43.1557 140.895 45.0634 140.895 47.0525C140.895 49.0416 140.105 50.9493 138.698 52.3558C137.292 53.7623 135.384 54.5525 133.395 54.5525C131.406 54.5525 129.498 53.7623 128.092 52.3558C126.685 50.9493 125.895 49.0416 125.895 47.0525C125.895 45.0634 126.685 43.1557 128.092 41.7492C129.498 40.3427 131.406 39.5525 133.395 39.5525ZM60 0.5C65.9674 0.5 71.6903 2.87053 75.9099 7.0901C80.1295 11.3097 82.5 17.0326 82.5 23C82.5 28.9674 80.1295 34.6903 75.9099 38.9099C71.6903 43.1295 65.9674 45.5 60 45.5C54.0326 45.5 48.3097 43.1295 44.0901 38.9099C39.8705 34.6903 37.5 28.9674 37.5 23C37.5 17.0326 39.8705 11.3097 44.0901 7.0901C48.3097 2.87053 54.0326 0.5 60 0.5ZM116.25 23C117.245 23 118.198 23.3951 118.902 24.0984C119.605 24.8016 120 25.7554 120 26.75C120 27.7446 119.605 28.6984 118.902 29.4016C118.198 30.1049 117.245 30.5 116.25 30.5C115.255 30.5 114.302 30.1049 113.598 29.4016C112.895 28.6984 112.5 27.7446 112.5 26.75C112.5 25.7554 112.895 24.8016 113.598 24.0984C114.302 23.3951 115.255 23 116.25 23Z"
        fill="url(#paint0_angular_6844_45631)" />
    <defs>
        <radialGradient id="paint0_angular_6844_45631" cx="0" cy="0" r="1"
            gradientUnits="userSpaceOnUse"
            gradientTransform="translate(75 75.5) rotate(-66.2505) scale(81.939 81.3324)">
            <stop stop-color="#1abbf0" />
            <stop offset="0.95" stop-color="#1abbfb" />
        </radialGradient>
    </defs>
</svg>
